<?xml version="1.0" encoding="UTF-8"?><svg id="Layer_2" xmlns="http://www.w3.org/2000/svg" viewBox="0 0 500 188.43" width="260" height="100"><defs><style>.cls-1,.cls-2{fill:#e25a1c;}.cls-2,.cls-3{fill-rule:evenodd;}</style></defs><g id="Layer_1-2"><g id="g4163"><g id="g4165"><path id="path4167" class="cls-2" d="m476.08,116.1c-.24-.52-.35-.78-.48-1.03-3.52-6.69-7.03-13.38-10.57-20.05-.36-.67-.31-1.07.18-1.64,5.59-6.53,11.16-13.1,16.73-19.65.2-.23.37-.48.45-.88-1.63.43-3.26.85-4.89,1.28-6.76,1.79-13.52,3.58-20.27,5.39-.63.17-.92-.02-1.23-.54-3.84-6.41-7.7-12.81-11.55-19.21-.2-.33-.41-.66-.84-.93-.31,1.71-.63,3.41-.93,5.12-1.07,6.03-2.14,12.07-3.21,18.1-.12.65-.28,1.3-.33,1.96-.05.62-.37.85-.94,1.03-7.97,2.5-15.92,5.03-23.88,7.55-.35.11-.69.25-1.07.59,6.51,2.59,13.02,5.17,19.63,7.8-.24.19-.4.34-.57.45-4.07,2.63-8.15,5.26-12.21,7.9-.49.32-.87.36-1.42.12-4.86-2.19-9.74-4.34-14.61-6.51-2.19-.98-4.15-2.27-5.68-4.15-3.46-4.23-2.78-9.05,1.83-12,1.51-.96,3.22-1.69,4.93-2.24,7.8-2.54,15.63-4.99,23.46-7.45.66-.21.96-.5,1.08-1.21,1.04-6.04,2.12-12.07,3.21-18.1.58-3.22.89-6.53,2.46-9.49.6-1.14,1.32-2.25,2.18-3.2,3.11-3.45,7.44-3.58,10.73-.3,1.11,1.11,2.06,2.42,2.89,3.76,3.62,5.9,7.18,11.84,10.72,17.79.42.7.8.85,1.57.64,8.73-2.34,17.46-4.64,26.2-6.95,1.8-.48,3.62-.65,5.47-.3,4.03.75,5.79,3.82,4.42,7.71-.62,1.77-1.69,3.27-2.89,4.68-6.1,7.17-12.18,14.35-18.3,21.5-.5.58-.51,1.01-.16,1.66,3.65,6.88,7.27,13.77,10.9,20.66.87,1.65,1.53,3.36,1.55,5.25.04,4.31-3.11,7.83-7.38,8.46-2.4.35-4.62-.16-6.87-.85-5.47-1.69-10.95-3.35-16.44-5-.51-.15-.7-.35-.79-.9-.63-3.86-1.32-7.71-1.98-11.57-.02-.11.01-.22.03-.46,6.24,1.72,12.43,3.43,18.88,5.21"/><path id="path4169" class="cls-3" d="m465.41,172.32c-4.94,0-9.87-.03-14.81-.01-.65,0-1.02-.19-1.38-.74-5.84-8.9-11.71-17.78-17.58-26.67-.19-.28-.39-.56-.72-1.03-1.26,9.6-2.5,18.98-3.73,28.39h-12.92c.15-1.26.28-2.48.44-3.69,1.26-9.64,2.53-19.27,3.8-28.91,1.21-9.21,2.42-18.41,3.64-27.62.04-.27.22-.62.44-.77,4.45-2.9,8.91-5.77,13.37-8.65.07-.04.16-.05.39-.11-1.35,10.29-2.69,20.51-4.03,30.72.05.04.11.07.16.11,7-7.76,14-15.52,21.16-23.45.21,1.19.39,2.21.56,3.24.5,2.93.98,5.86,1.52,8.78.11.59-.05.95-.44,1.36-4.53,4.74-9.04,9.49-13.55,14.24-.2.21-.39.42-.61.67.14.23.27.45.41.66,7.79,10.93,15.57,21.86,23.37,32.78.14.2.34.35.52.53v.17"/><path id="path4171" class="cls-3" d="m312.21,143.91c-.2-1.01-.34-2.49-.79-3.87-2.16-6.68-9.02-10.34-16.11-8.69-7.78,1.81-13.34,7.93-14.15,15.87-.6,5.87,2.57,11.53,8.45,13.65,4.74,1.71,9.3,1,13.53-1.54,5.61-3.37,8.66-8.37,9.06-15.42Zm-34.17,24.82c-.38,2.87-.75,5.58-1.11,8.29-.47,3.6-.95,7.2-1.4,10.81-.05.42-.18.61-.63.6-3.55-.01-7.1-.01-10.65-.02-.08,0-.16-.04-.35-.1.21-1.7.42-3.41.65-5.11.78-5.97,1.56-11.95,2.36-17.92.91-6.83,1.63-13.69,2.79-20.48,2.06-12.02,12.26-22.37,24.22-24.95,6.94-1.5,13.57-.8,19.63,3.1,6.04,3.89,9.5,9.54,10.29,16.64,1.12,10.04-2.58,18.38-9.72,25.28-4.68,4.53-10.29,7.41-16.76,8.38-6.66,1-12.92-.11-18.54-4.03-.21-.14-.43-.27-.78-.49"/><path id="path4173" class="cls-3" d="m272.25,111.63c-3.98,2.96-7.82,5.82-11.67,8.69-.62-.98-1.18-1.96-1.83-2.87-1.67-2.34-3.75-4.08-6.77-4.3-2.51-.18-4.66.65-6.37,2.5-1.53,1.66-1.73,4.01-.3,5.88,1.57,2.06,3.3,4.01,5.05,5.92,2.92,3.16,5.96,6.2,8.86,9.38,2.64,2.89,4.74,6.13,5.39,10.09.77,4.7-.17,9.17-2.39,13.3-4.11,7.64-10.59,12.08-19.14,13.46-3.78.61-7.54.49-11.23-.59-4.89-1.44-8.29-4.64-10.48-9.17-.77-1.6-1.36-3.29-2.07-5,4.28-2.29,8.44-4.52,12.66-6.78.15.35.25.64.39.92.72,1.44,1.31,2.97,2.2,4.3,2.64,3.93,6.91,5.13,11.24,3.18,1.11-.5,2.18-1.2,3.1-2.01,2.79-2.48,3.31-5.93,1.25-9.04-1.19-1.79-2.67-3.4-4.12-5-3.45-3.84-7.05-7.55-10.42-11.45-2.33-2.69-3.91-5.83-4.41-9.44-.55-3.94.24-7.65,2.29-10.96,5.09-8.24,12.49-12.52,22.28-12.17,5.58.2,10.02,2.81,13.47,7.15,1.02,1.28,1.98,2.62,3.02,4.01"/><path id="path4175" class="cls-3" d="m366.79,155.85c-.65,4.96-1.26,9.68-1.9,14.39-.03.24-.22.56-.42.66-9.63,4.46-22.32,3.84-30.23-5.15-4.25-4.83-6.03-10.56-5.77-16.93.62-14.75,12.85-27.63,27.48-29.43,8.55-1.05,16.04,1.26,21.83,7.9,3.94,4.52,5.77,9.92,5.5,15.88-.18,3.94-.79,7.86-1.28,11.78-.69,5.55-1.45,11.09-2.19,16.64-.03.2-.07.39-.11.64h-11.53c.15-1.27.29-2.52.46-3.77.83-6.41,1.75-12.8,2.48-19.22.46-4,.17-7.96-1.66-11.67-1.94-3.93-5.2-6.02-9.49-6.47-8.87-.94-17.32,5.23-19.21,13.96-1.25,5.77.72,11.29,5.31,14.35,4.48,2.98,9.27,2.99,14.14,1.06,2.47-.98,4.58-2.53,6.58-4.62"/><path id="path4177" class="cls-3" d="m415.32,120.51c-.53,4-1.04,7.93-1.57,11.95-2.44,0-4.83-.01-7.21,0-1.94.02-3.7,1.26-4.28,3.07-.23.71-.31,1.46-.41,2.21-1.21,9.18-2.42,18.35-3.62,27.53-.3,2.31-.6,4.63-.9,6.98h-12c.22-1.76.44-3.47.66-5.18.78-5.95,1.56-11.89,2.35-17.84.68-5.14,1.29-10.3,2.09-15.43,1.08-6.87,7.91-12.97,14.85-13.27,3.31-.14,6.63-.02,10.05-.02"/><path id="path4179" d="m479.55,172.24v-5.06h-.03l-1.99,5.06h-.63l-1.99-5.06h-.03v5.06h-1v-6.07h1.55l1.81,4.61,1.78-4.61h1.53v6.07h-1,0Zm-8.8-5.25v5.25h-1v-5.25h-1.9v-.81h4.8v.81h-1.9"/><path id="path4181" d="m288.32,103.11h2.97l-.7-4.5-2.27,4.5Zm3.44,2.91h-4.95l-1.57,3.08h-3.5l7.73-14.44h3.38l2.63,14.44h-3.25l-.47-3.08"/><path id="path4183" d="m309.47,97.57h-1.76l-.59,3.33h1.76c1.06,0,1.91-.7,1.91-2.02,0-.87-.53-1.32-1.32-1.32Zm-4.27-2.91h4.63c2.42,0,4.12,1.44,4.12,3.93,0,3.12-2.21,5.22-5.35,5.22h-2l-.94,5.29h-3.01l2.55-14.44"/><path id="path4185" d="m324.19,103.11h2.97l-.7-4.5-2.27,4.5Zm3.44,2.91h-4.95l-1.57,3.08h-3.5l7.73-14.44h3.38l2.63,14.44h-3.25l-.47-3.08"/><path id="path4187" d="m347.2,108.59c-1.02.47-2.14.74-3.27.74-3.82,0-6.22-2.87-6.22-6.46,0-4.59,3.86-8.45,8.45-8.45,1.15,0,2.19.28,3.04.74l-.42,3.46c-.64-.7-1.66-1.19-2.93-1.19-2.63,0-4.97,2.38-4.97,5.14,0,2.1,1.32,3.74,3.4,3.74,1.27,0,2.51-.49,3.33-1.17l-.4,3.44"/><path id="path4189" d="m365.63,103.28h-6.29l-1.02,5.82h-3.01l2.55-14.44h3.02l-1.02,5.71h6.29l1.02-5.71h3.02l-2.55,14.44h-3.02l1.02-5.82"/><path id="path4191" d="m376.69,109.1l2.55-14.44h8.01l-.51,2.91h-4.99l-.51,2.8h4.59l-.51,2.91h-4.59l-.51,2.91h4.99l-.51,2.91h-8.01"/></g></g><path d="m53,5.61c-1.1-1.38-2.43-2.14-3.9-2.25-2.38-.3-4.95-.53-7.27-.25-.83.1-1.62.19-2.39.14-.67-.04-1.36-.16-2.08-.29-.95-.16-1.92-.33-2.93-.33h-1.24c-.47,0-.93.02-1.4.05-.86.04-1.68.08-2.51-.04-1.58-.17-3.14-.07-4.65.03l-1.09.07c-2.12.1-4.3.21-6.45.21-1.26,0-2.38.15-3.43.47-.38.13-.86.29-1.24.67-.04.04-.07.07-.1.11l-.36.47c-.84,1.1-1.8,2.34-2.01,4.05l-.19,1.35c-.27,1.82-.54,3.71-.54,5.6s-.1,3.64-.31,5.47c-.1,1.14-.21,2.32-.21,3.46-.03.75-.05,1.5-.07,2.25-.06,2.18-.11,4.44-.34,6.63-.27,2.37-.34,4.91-.21,8.17,0,1.75,0,3.41-.28,5-.19.76-.17,1.5-.15,2.15,0,.2.01.39.01.53-.03.73-.06,1.45-.08,2.18-.05,1.4-.09,2.85-.22,4.23-.19,1.55-.34,3.39,0,5.21.1.8.08,1.46-.07,2.07-.53,2-.42,4.12.33,6.49.29.87.49,1.75.7,2.7.21.84.43,1.71.72,2.47.11.43.39,1.21,1.15,1.71.21.11.42.24.63.36,1.16.68,2.6,1.53,4.45.98.05,0,.19.03.29.05.24.05.47.09.59.08.94.11,1.92.21,2.9.21h17.63c.45,0,.96,0,1.45-.12,1.93-.39,3.87-.29,5.9-.19,1.48.11,2.97.11,4.41.11s2.55-.74,3.12-2.03c.28-.56.42-1.14.42-1.72,0-.39-.03-.77-.05-1.16-.02-.34-.05-.67-.06-1.14-.13-1.04-.62-1.91-1.54-2.67-1.18-.91-2.44-1.36-3.85-1.36h-2.82s-8.62.31-8.62.31c-.45,0-.9,0-1.34-.02-1.86-.03-3.78-.07-5.8.48-.14.05-.35.05-.62.05l-11.73.31h-.27s-.07-.03-.11-.06l-.3-7.6c.02-.73.04-1.44.06-2.14.06-2.17.11-4.23.33-6.25l.12-.24c.06-.11.09-.23.11-.35.21-1.75.42-3.57.42-5.38,0-.42,0-1.69.08-1.88.09-.05.42-.12.69-.18.34-.08.76-.17,1.21-.3.53-.13,1.14-.1,1.95.1,1.6.4,3.32.41,5.38.02,2.09-.35,4.56-.62,6.99-.02.48.12,1.08.27,1.78.1.64-.18,1.35-.14,2.09-.1.9.05,1.83.1,2.71-.08,1.31-.16,2.42-1.27,2.58-2.59.11-.99.11-1.96.11-2.9s-.34-2.17-1.95-3.18c-.94-.59-2.02-.96-3.25-1.09h-9.64c-.97-.02-2.07-.04-3.1.24-1.28.32-2.58.37-3.96.43-.96.04-1.95.08-3.01.23-.02-.07-.04-.14-.06-.2.03-1.14.05-2.28.06-3.42.02-2.21.05-4.49.25-6.73.14-1.68.19-3.37.23-5.01.02-.82.05-1.64.08-2.5v-3.35q.07-1.56,1.36-1.9c.76-.19,1.53-.29,2.33-.39l2.77-.31c.32-.03.65-.01.97,0,.72.03,1.54.07,2.35-.26.09-.03.16-.03.33.02,1.74.44,3.45.4,5.1.36,2.41-.05,4.72-.11,7.05.38,1.33.22,2.64.22,3.84.22.66.03,1.31.03,1.97.04,1.92.02,3.72.04,5.47.52.6.2,1.3.08,1.91-.33.52-.34.91-.85,1.1-1.4.42-1.36.43-2.82,0-4.68-.15-.45-.43-.9-.7-1.15Z"/><path d="m127.89,56.39c0-1.08-.11-2.16-.21-3.21-.34-3.2-.51-6-.51-8.55,0-4.21.11-8.51.21-12.68,0-2.78,0-5.65-.42-8.47-.04-.39.02-.84.09-1.32.06-.43.12-.87.12-1.34,0-.51-.06-.99-.12-1.46-.07-.54-.14-1.06-.09-1.5.11-.85.16-1.69.21-2.54.05-.8.1-1.61.2-2.41.21-1.68-.12-3.32-1.03-5.15-.25-.5-.72-.88-1.25-1.03-.48-.13-.95-.05-1.28.17l-1.18.69c-1.02.51-2.26,1.61-2.44,3.96l-.2,2.43c-.04.29-.06.58-.08.87-.04.52-.08,1.01-.2,1.48-.34,1.37-.34,2.69-.34,3.97v4.02c0,.22,0,.44-.01.67-.02.75-.04,1.53.14,2.33.39,1.96.39,3.91.39,5.98v7.48c.02,1.94.03,3.76-.4,5.67-.1.68-.15,1.71.13,2.71.34,1.23.38,2.48.34,3.79-.4-.42-.78-.84-1.1-1.27-.6-.9-1.33-1.78-2.33-2.77l-3.75-3.43c-1.09-.99-2.21-2.01-3.18-3.08-1.69-1.95-3.16-3.28-4.83-4.36-.84-.47-1.59-1.03-2.26-1.7-2.08-1.97-3.85-3.77-5.41-5.51-.99-1.09-2.11-2.23-3.45-3.13l-1.18-.88-6.86-5.92-1.31-.98c-2.1-1.32-3.95-3.06-5.74-4.75-.51-.48-1.02-.96-1.55-1.44-.93-.83-1.9-1.69-3.01-2.47-1.18-.76-2.31-1.8-3.56-3.27l-.9-1.12c-.73-.73-2-1.01-2.92-.65-2.42,1-3.65,2.65-3.65,4.91v8.04c0,.45,0,.96.15,1.54.57,1.89.47,3.8.37,5.88v3.77c.1,1.94.2,3.78-.2,5.67-.08.58-.06,1.12-.03,1.65.01.22.02.45.02.71.02.67.06,1.35.11,2.02.13,2.21.26,4.3-.19,6.43-.13.79,0,1.54.11,2.26.16.73.19,1.5.09,2.37-.49,2.8-.48,5.26.02,7.56.16.65.16,1.41,0,2.08-.39,1.7-.39,3.38-.4,5,0,.67,0,1.33-.04,2.05,0,1.19.11,2.4.33,3.59.27,1.49,1.37,2.52,3.04,2.82.8.13,1.55,0,2.16-.1.68-.08,1.35-.52,1.85-1.18.48-.65.71-1.41.64-1.94,0-.25-.03-.5-.06-.75-.02-.16-.04-.32-.05-.42.03-.54.08-1.09.12-1.63.09-1.1.19-2.24.19-3.39,0-.87-.08-1.74-.16-2.57-.08-.82-.15-1.6-.15-2.38,0-1.01-.1-2.02-.19-2.99-.05-.47-.09-.95-.12-1.41-.06-.86.07-1.74.2-2.68.09-.61.17-1.21.21-1.89v-14.57c.23-1.76.12-3.78,0-5.92-.03-.48-.05-.97-.08-1.46l.1-.04c.42-.16.69-.56.69-1,0-1.18.03-2.36.05-3.53.03-1.17.05-2.34.05-3.51,0,0,.01,0,.02.01,1.37.84,2.52,1.74,3.53,2.74l3.39,3.29.27.28c.87.88,1.78,1.8,3.13,2.25.07.02.18.14.36.31l2.48,2.17c2.06,1.86,4.2,3.78,6.75,5.26.37.22.65.5.89.9,1.24,1.91,2.93,3.36,4.58,4.7.88.69,1.72,1.34,2.25,2.13,1.28,1.87,2.99,3.08,4.62,4.1,1.03.68,1.96,1.48,3.14,2.65,1.47,1.47,2.99,2.9,4.47,4.28.72.68,1.44,1.35,2.13,2.01.23.23.53.53.99.72.5.34.88.88,1.28,1.45l.18.26c1.02,1.48,2.06,3.11,2.75,4.89.22.66.45,1.35.87,2.04.64.88.93,1.87.93,3.19v.62c0,1.04.36,2,1.04,2.81l.93,1.24s.06.08.1.11c.54.54,1.22.82,1.93.82.3,0,.61-.05.92-.15,1-.33,1.72-1.01,2.02-1.91.02-.05.03-.1.04-.14l.52-2.78c.42-2.2.45-4.44.11-6.85-.35-2.35-.5-4.88-.5-8.2Z"/><path d="m191.66,58.31c-.05-1.14-.09-2.28-.16-3.42-.07-1.18-.17-2.36-.28-3.54-.2-2.27-.41-4.61-.34-6.92,0-1.33-.74-2.37-2.07-2.87-.65-.22-1.39-.47-2.11-.47h-.01c-1.43-.1-2.87-.1-4.27-.11l-.2-.2c-.22-.22-.53-.33-.83-.31l-4.32.31c-3.2.19-6.56.85-10.28,2.01-1.94.65-3.31,1.71-4.19,3.26-.99,1.7-.76,3.67.5,4.92.64.8,1.63,1.18,2.72.99.94-.21,1.91-.42,2.85-.74.51-.14.8-.13,1.18.07.85.64,1.88.74,2.82.27.87-.43,1.88-.5,2.94-.57l4.6-.35c1.26-.1,2.57-.1,3.83-.1.02.03.05.07.08.13.04.07.08.15.09.19.04.84.14,1.66.25,2.46.2,1.53.39,2.98.1,4.31-.2.7-.18,1.37-.16,1.96,0,.17.01.33.01.5v4.33c0,.16-.1.28-.21.3-1.86.44-3.53,1.2-5.09,2.32-1,.66-2.24,1.07-3.57,1.16-2.91.11-5.38-.18-7.6-.89-1.29-.4-2.62-.81-3.83-1.31-1.31-.5-2.66-1.12-3.88-1.69l-4.59-2.6c-1.08-.54-2.04-1.35-3.05-2.2-.4-.33-.79-.67-1.22-1-.29-.22-.55-.56-.77-.85l-.31-.5c-.92-1.46-1.79-2.84-2.12-4.4-.12-.61-.35-1.18-.61-1.82-.85-1.71-1.32-3.73-1.44-6.18-.1-1.72-.1-3.49-.1-5.22-.09-3.67.88-7.38,2.91-11.24l1.08-1.64c1.49-2.8,3.65-5.47,6.77-8.36,1.72-1.5,3.39-2.63,5.11-3.45,2.66-1.25,6.21-2.76,10.02-3.42.5-.08,1-.17,1.5-.26,1.45-.27,2.81-.52,4.21-.45h3.4c1.6,0,3.26.15,4.5,1.13.28.28.58.37.81.4.91.36,2.04.23,2.98-.36.96-.6,1.54-1.55,1.54-2.52l.03-.8c.12-3.1-.2-3.58-3.37-5.22-1.31-.71-2.62-1.06-4.02-1.06h-4.93c-6.26-.11-12.11,1.07-17.34,3.49l-1.22.51c-2.21.87-4.33,2.13-6.66,3.97-3.05,2.4-5.51,5.32-7.71,8.12-2.35,2.97-4.21,6.37-5.53,10.09-1.35,3.67-1.91,7.02-1.71,10.25.1,1.3.1,2.64.1,3.94,0,3.61.97,6.99,1.91,9.82.07.22.16.44.25.67.14.37.28.72.35,1.11.23.91.56,1.68.88,2.42.17.42.36.84.55,1.26.37.82.71,1.6.97,2.38.49,1.47,1.23,2.63,1.91,3.6l1.86,2.47c.33.44.71.95,1.28,1.37.36.25.71.54,1.06.82.96.78,2.04,1.67,3.52,2.02.25.06.55.2.73.31,1.01.81,2.23,1.41,3.98,1.95.32.09.66.3,1.02.53.25.16.5.31.75.43.43.21.84.45,1.25.68,1.47.83,2.98,1.69,4.94,1.69h.01c.08.02.16.06.24.1.1.05.21.09.31.13l.33.17c.54.29,1.15.62,1.85.72.44.08.87.18,1.3.27,1.21.27,2.44.54,3.75.54.62,0,1.25-.06,1.91-.21.1-.02.28,0,.48,0,.28.02.55.02.83.05.32.03.73.06,1.11-.04,3.3-.61,5.94-1.43,8.28-2.55,1.35-.6,2.26-1.49,2.73-2.67.22-.59.57-1.01,1.08-1.31,1.45-.84,2.18-2.23,2.18-4.12,0-.22.01-.45.02-.67.02-.52.05-1.06-.03-1.62-.27-2.23-.36-4.51-.45-6.72Z"/><path d="m248.58,66.33c-2.59-1.07-6.06-2.23-9.94-1.62-.62.09-1.25.09-1.88,0-.89-.11-1.76-.11-2.61-.11h-7.12c-.88,0-1.78,0-2.71.23-1.39.31-2.79.37-4.27.44l-1.13.05c-.49.03-.98.04-1.47.05-1.25.03-2.54.06-3.86.36h-.37c-.37-.04-.47-.13-.47-.13,0,0-.02-.04-.02-.15,0-.56-.01-1.11-.02-1.67-.02-1.11-.05-2.16.02-3.21.05-.81-.06-1.57-.17-2.31-.13-.87-.25-1.7-.05-2.5.12-.62-.02-1.18-.13-1.63-.03-.11-.06-.22-.07-.26-.1-.81-.2-1.58-.2-2.34,0-2.65,0-5.38-.1-8.07-.03-1.23-.02-2.46,0-3.69.03-2.99.07-6.08-.53-9.17,0-.05-.02-.09-.04-.13-.05-.14-.05-.35-.05-.59v-11.45c0-.67,0-1.29.17-1.91.58-2.33.12-4.59-.39-6.62-.12-.7-.48-1.27-.77-1.72l-.15-.23c-.39-.78-1.57-1.03-2.29-.67-1.6.87-2.55,1.97-2.9,3.36-.42,1.69-.86,3.43-.86,5.21,0,.76-.03,1.52-.05,2.28-.03.79-.05,1.57-.05,2.36,0,1.39-.1,2.79-.3,4.17-.27,1.72-.3,3.18-.1,4.47.37,2.16.41,4.3.45,6.57.01.75.03,1.51.05,2.22,0,.3,0,.6-.01.91-.02.96-.04,1.96.12,2.94.19,1.55.1,3.1,0,4.82,0,.2,0,.39-.01.59-.02.65-.04,1.39.14,2.1.51,2.53.49,5.09.39,7.49-.07,2.15-.05,4.33-.02,6.44.01,1.06.02,2.12.02,3.18,0,1.53,0,3.12.67,4.56.15.45.15.95.15,1.52,0,1.22.36,2.36,1.12,3.5.8,1.15,1.71,1.52,2.55,1.52.54,0,1.05-.15,1.49-.35l.76-.38.31-.11c1.62-.55,3.15-1.06,4.79-.57,1.14.29,2.2.09,2.98-.1,1.12-.26,2.36-.39,3.78-.39.65,0,1.33,0,2.14-.14,1.45-.4,2.92-.39,4.48-.38h6.37c.28,0,.54-.1.73-.28.82.02,1.64.03,2.46.04,1.5.01,3.05.02,4.55.14,3.36.3,4.15-.47,5.28-2.45.11-.2.24-.42.35-.6.31-.46.44-1,.54-1.39.59-1.78-.09-3.47-1.74-4.21Z"/><path d="m267.17,60.46c-.26-1.08-.51-2.11-.51-3.13v-18.87c0-.65.1-1.31.2-2.02.22-1.63.22-3.29,0-4.9-.1-.92-.2-1.8-.2-2.67,0-1.93-.01-3.85-.02-5.78-.02-3.78-.05-7.69.02-11.54,0-1.92-.45-3.65-1.39-5.29-.48-.79-1.07-1.25-1.76-1.36-.69-.11-1.42.16-2.18.84-.85.85-1.3,1.87-1.44,3.22-.52,4.8-.52,9.65-.52,14.35,0,2.12.03,4.24.05,6.35.03,2.11.05,4.22.05,6.33v20.11c0,.36,0,.73-.02,1.09-.03,1.55-.07,3.16.48,4.78,0,.07,0,.14-.02.2-.02.14-.03.29-.03.43,0,1.44,0,2.92.11,4.4.11,1.59.32,3.19.63,4.76.28,1.54,1.41,2.63,3.01,2.92.33.07.66.1.98.1s.66-.03.98-.1c1.49-.3,2.56-1.39,2.72-2.91v-1.28c-.12-3.05-.36-5.72-.74-8.19-.11-.62-.26-1.23-.4-1.84Z"/><path d="m321.98,45.02l-.64-1.07c-2.57-3.91-6.19-7.02-10.76-9.25l-3.39-1.54c-1.91-.9-3.88-1.84-5.87-2.88-2.39-1.2-4.86-2.43-7.04-4.02-1.59-1.19-2.81-2.54-3.75-4.14-.71-1.16-.93-2.22-.69-3.34l.1-.46c.35-1.69.68-3.29,1.78-4.47.4-.4.63-.87.84-1.29.08-.16.16-.32.22-.42.13-.19.34-.4.47-.49.67-.39,1.31-.75,1.98-.92,1.13-.27,2.3-.45,3.43-.63.59-.09,1.18-.19,1.71-.28l1.86-.21s.1-.01.14-.02c1.04-.26,2.15-.05,3.2.21.75.19,1.45.36,1.99.75.52.39,1.17.67,1.83.8,1.02.26,1.88.76,2.7,1.58.75.75,1.44,1.3,2.09,1.66,1.02.73,2.26.8,3.54.15.86-.51,1-1.34,1.08-1.84l.23-1.71c.27-1.08.02-2.1-.22-3.05-.44-1.44-1.31-2.74-2.59-3.89-1.92-1.68-3.91-2.8-6.1-3.43-1.96-.52-4.05-.96-6.08-.76-2.6-.12-4.54.09-6.29.68-.05.02-.09.03-.14.06l-.3.15-2.05.49c-.05.01-.1.03-.15.05-.36.14-.74.28-1.12.41-.71.25-1.45.51-2.2.89-2.39,1.33-3.94,2.72-5.02,4.49-.72,1.13-1.54,2.26-2.35,3.37-2.43,3.48-3.43,7.51-2.97,11.97.23,2.06.91,3.96,2.03,5.63,4.02,6.02,4.82,6.82,10.82,10.71l.33.22c.82.51,1.82,1.05,3.03,1.19.74.08,1.42.33,2.05.72.53.39,1.12.63,1.68.85.46.19.94.37,1.43.55.78.29,1.59.59,2.35.98.44.2.85.44,1.27.68.82.47,1.66.95,2.67,1.2l4.47,2.97s.04.08.06.12c.03.05.06.11.09.15l.23.32c.99,1.35,1.93,2.62,2.25,4.05.11.8.33,1.56.54,2.29.61,2.28.64,4.68.09,7.56-.07.36-.13.67-.17.94q-.2,1.14-1.96,1.88c-.65.26-1.15.63-1.56.94-1.4.99-3.07,1.55-5.26,1.77-2.33.22-4.36.16-6.22-.2-4.11-.68-8.16-2.07-12.07-4.13-.33-.16-.71-.45-1.1-.74-.9-.63-1.6-1.42-2.16-2.44-.65-1.14-2.12-1.6-3.43-1.1l-.93.31c-.06.02-.11.04-.16.07-1.97,1.05-2.68,2.86-3.09,4.42-.21.64-.03,1.22.08,1.53.16.64.47,1.2.84,1.57,1.56,1.87,3.17,3.8,5.25,5.33,1.65,1.18,3.53,1.96,4.97,2.5,5.58,2.19,10.1,3.17,14.54,3.17.2,0,.4,0,.6,0,1.47,0,2.87-.29,4.22-.56.65-.13,1.3-.27,1.97-.37.41-.02.75-.19,1.04-.34.68-.38,1.37-.74,2.06-1.1,1.71-.89,3.48-1.81,5.14-3.16,1.06-.96,2.15-2.02,2.74-3.56.36-.81.92-1.56,1.55-2.4,1.1-1.59,1.63-3.24,1.63-5.04,0-.98.1-1.95.2-2.99.11-1.1.11-2.21,0-3.35-.49-3.42-1.63-6.9-3.55-10.71Z"/><path d="m394.77,67.03c-.02-.87-.05-1.73-.05-2.6s-.12-1.62-.24-2.39c-.07-.47-.14-.94-.18-1.4-.03-.5-.04-1-.05-1.5-.02-1.06-.05-2.16-.27-3.29-.44-2.15-.35-4.3-.25-6.58.05-1.18.1-2.39.07-3.61.44-1.76.43-3.49.41-5.17v-.79c.1-2.52,0-5.08-.32-7.59-.36-3.14-.64-6.84-.02-10.45.13-.54.13-1.05.13-1.43.23-3.96.3-7.43.21-10.58,0-1.58-.33-2.98-1.11-4.51-.28-.42-.78-.7-1.33-.76-.57-.05-1.09.12-1.39.43l-1.51,1.29c-.97.97-1.45,2.07-1.45,3.33,0,.19,0,.39.01.58.02.49.03.91-.06,1.25-.3.89-.33,1.76-.35,2.53-.02.47-.03.92-.1,1.34-.15.88-.2,1.75-.24,2.59-.02.4-.05.81-.07,1.15l-.31,2.17c-.31,2.28-.45,4.58-.59,6.81-.05.74-.09,1.49-.13,2.16-.1.71.02,1.38.12,1.96.03.17.06.34.1.56.16.8.1,1.64-.16,2.56-1.16-.26-2.18-.33-3.1-.23-.88.07-1.76.08-2.69.09-1.69.01-3.44.03-5.22.46-.1.02-.29.01-.48,0-1.05-.09-2.11,0-3.16.03-.87.03-1.73.05-2.6.05-2.06,0-4.12.27-6.11.54-.79.1-1.58.21-2.37.3-2.19.25-4.41.62-6.55.97-1.43.24-2.87.48-4.36.69-1.03.21-2.01.4-3.02.5-.75.09-1.51.09-2.31.09-.04-.53-.08-1.06-.12-1.59-.09-1.11-.18-2.16-.18-3.21,0-3.7.1-7.46.21-11.14,0-.36-.01-.71-.02-1.07-.02-.67-.04-1.3,0-1.85.3-1.8.57-3.89-.02-6.03,0,0,0-.02,0-.02.33-1.03.19-2,.06-2.85-.06-.41-.12-.81-.12-1.25-.12-1.71-.97-3.04-1.66-4.11-.24-.49-.73-.84-1.34-.96-.49-.1-1.02-.04-1.53.22-1.07.67-1.75,1.63-2.03,2.88-.32,1.72-.66,3.5-.31,5.36.09.44.16.82.1,1.12-.43,2.04-.39,4.06-.35,6.01.01.54.02,1.09.02,1.63,0,1.96,0,3.81-.39,5.65-.24,1.1-.13,2.13,0,3.21.21,1.18.28,2.19.2,3.09-.22,1.97,0,3.92.2,5.69v4.02c0,.33.15.64.41.85.01,1.85.07,3.75.44,5.7.17.7.17,1.43.17,2.21,0,1.78.27,3.54.54,5.25.1.67.21,1.34.3,2.03l.26,1.69c.33,2.15.68,4.38.76,6.5,0,.75,0,1.52.13,2.42.21.85.43,1.73.75,2.45.23.7.94,1.21,1.44,1.38.53.21,1.06.32,1.58.32.87,0,1.72-.3,2.48-.89.88-.71,1.33-1.54,1.33-2.48,0-2.18,0-4.43-.44-6.72-.31-1.45-.6-2.81-.7-4.19-.24-2.93-.58-5.5-1.06-7.89-.24-1.05-.3-2.19-.19-3.63.07-.46.33-.55.36-.56.29-.08.58-.17.87-.25.82-.24,1.6-.47,2.34-.54,1.25-.1,2.5-.26,3.75-.42,1.22-.15,2.45-.31,3.63-.41.95-.05,1.9-.15,2.85-.25,1.24-.14,2.42-.26,3.6-.26.48,0,.92-.12,1.31-.22.15-.04.3-.08.42-.1.63-.1,1.25-.22,1.88-.34,1.86-.35,3.62-.68,5.37-.68.71,0,1.37-.11,1.99-.21.81-.1,1.58-.2,2.39-.2,2.35-.1,4.75-.1,7.07-.1,1.18,0,2.41.38,3.79.76.1.59.19,1.15.2,1.77.1,1.1.02,2.22-.05,3.4-.07,1.14-.15,2.31-.07,3.5-.36,1.22-.35,2.53.03,4.01.09.53.09,1.09.09,1.68v3.4c0,2.33.09,4.84.75,7.38.12.47.25,1,.61,1.54,1.09,1.36,2.44,2.05,4.03,2.05,1.49,0,2.65-.94,2.79-2.15.11-.45.24-.95.24-1.5,0-.89-.03-1.77-.05-2.66Z"/><path class="cls-1" d="m18.92,106.11c2.64,0,4.69,1.47,6.6,3.45l5.22-4.88c-2.92-3.53-7.06-5.74-11.47-5.74-7.46,0-13.4,5.26-13.4,11.81,0,4.6,2.18,7.3,5.6,9.45l3.46,2.14c2.65,1.63,4.36,2.57,4.36,4.47,0,2.52-2.07,4.04-5.11,4.04s-6.2-1.88-8.22-4.71l-5.94,4.67c3.75,5.1,8.65,7.11,13.52,7.11,8.75,0,14.36-5.45,14.36-12.3,0-4.36-1.56-6.76-5.19-8.94l-3.65-2.23c-2.96-1.86-4.67-2.72-4.67-4.54,0-2.04,1.58-3.8,4.55-3.8Z"/><path class="cls-1" d="m47.45,99.64h-8.43l-7.52,37.59h11.93c11.97,0,20.72-7.86,20.72-22.81,0-9.99-6.19-14.78-16.7-14.78Zm-4.21,30.93h-2.08l4.82-24.26h1.26c5.01,0,8.4,2.5,8.4,8.63,0,10.94-5.47,15.63-12.4,15.63Z"/><polygon class="cls-1" points="93.28 99.64 79.68 114.72 79.46 114.72 82.47 99.64 74.16 99.64 66.64 137.22 74.95 137.22 77.13 126.38 82.58 120.41 88.46 137.22 97.09 137.22 88.72 115.21 102.35 99.64 93.28 99.64"/><polygon class="cls-1" points="112.18 137.22 120.49 137.22 123.49 122.36 135.57 122.36 136.93 115.39 124.83 115.39 126.54 106.6 140.81 106.6 142.17 99.64 119.69 99.64 112.18 137.22"/><path class="cls-1" d="m162.09,98.94c-10.11,0-19.21,9.56-19.21,23.06,0,10.04,5.64,15.92,14.26,15.92,10.11,0,19.21-9.56,19.21-23.06,0-10.04-5.65-15.91-14.26-15.91Zm-4.53,31.8c-3.96,0-6.17-3.47-6.17-9.28,0-8.7,5.25-15.35,10.28-15.35,3.96,0,6.17,3.47,6.17,9.28,0,8.7-5.25,15.35-10.28,15.35Z"/><path class="cls-1" d="m210.21,109.35c0-7.09-5.57-9.71-12.99-9.71h-11.97l-7.52,37.59h8.31l2.67-13.54h4.4l4.69,13.54h8.74l-5.76-14.75c5.42-1.9,9.43-6.11,9.43-13.13Zm-18.01-3.15h3.77c3.88,0,6.02,1.34,6.02,4.38,0,3.94-2.72,6.54-8.13,6.54h-3.8l2.13-10.93Z"/></g></svg>